<?xml version="1.0" encoding="UTF-8" standalone="no"?>
<!DOCTYPE svg PUBLIC "-//W3C//DTD SVG 1.1//EN"
 "http://www.w3.org/Graphics/SVG/1.1/DTD/svg11.dtd">
<!-- Generated by graphviz version 2.43.0 (0)
 -->
<!-- Title: ESG_End_to_End_Pipeline Pages: 1 -->
<svg width="2868pt" height="325pt"
 viewBox="0.00 0.00 2868.00 325.00" xmlns="http://www.w3.org/2000/svg" xmlns:xlink="http://www.w3.org/1999/xlink">
<g id="graph0" class="graph" transform="scale(1 1) rotate(0) translate(4 321)">
<title>ESG_End_to_End_Pipeline</title>
<polygon fill="white" stroke="transparent" points="-4,4 -4,-321 2864,-321 2864,4 -4,4"/>
<g id="clust1" class="cluster">
<title>cluster_data</title>
<path fill="none" stroke="black" stroke-dasharray="5,2" d="M20,-120C20,-120 1172,-120 1172,-120 1178,-120 1184,-126 1184,-132 1184,-132 1184,-185 1184,-185 1184,-191 1178,-197 1172,-197 1172,-197 20,-197 20,-197 14,-197 8,-191 8,-185 8,-185 8,-132 8,-132 8,-126 14,-120 20,-120"/>
<text text-anchor="middle" x="596" y="-181.8" font-family="Times,serif" font-size="14.00">Data &amp; Preprocessing</text>
</g>
<g id="clust2" class="cluster">
<title>cluster_models</title>
<path fill="none" stroke="black" stroke-dasharray="5,2" d="M1216,-64C1216,-64 1614,-64 1614,-64 1620,-64 1626,-70 1626,-76 1626,-76 1626,-241 1626,-241 1626,-247 1620,-253 1614,-253 1614,-253 1216,-253 1216,-253 1210,-253 1204,-247 1204,-241 1204,-241 1204,-76 1204,-76 1204,-70 1210,-64 1216,-64"/>
<text text-anchor="middle" x="1415" y="-237.8" font-family="Times,serif" font-size="14.00">Model Inference</text>
</g>
<g id="clust3" class="cluster">
<title>cluster_agg</title>
<path fill="none" stroke="black" stroke-dasharray="5,2" d="M1658,-120C1658,-120 2299,-120 2299,-120 2305,-120 2311,-126 2311,-132 2311,-132 2311,-185 2311,-185 2311,-191 2305,-197 2299,-197 2299,-197 1658,-197 1658,-197 1652,-197 1646,-191 1646,-185 1646,-185 1646,-132 1646,-132 1646,-126 1652,-120 1658,-120"/>
<text text-anchor="middle" x="1978.5" y="-181.8" font-family="Times,serif" font-size="14.00">Post&#45;processing &amp; Aggregation</text>
</g>
<g id="clust4" class="cluster">
<title>cluster_scores</title>
<path fill="none" stroke="black" stroke-dasharray="5,2" d="M2343,-8C2343,-8 2547,-8 2547,-8 2553,-8 2559,-14 2559,-20 2559,-20 2559,-297 2559,-297 2559,-303 2553,-309 2547,-309 2547,-309 2343,-309 2343,-309 2337,-309 2331,-303 2331,-297 2331,-297 2331,-20 2331,-20 2331,-14 2337,-8 2343,-8"/>
<text text-anchor="middle" x="2445" y="-293.8" font-family="Times,serif" font-size="14.00">ESG Scoring (10 Methods)</text>
</g>
<g id="clust5" class="cluster">
<title>cluster_val</title>
<path fill="none" stroke="black" stroke-dasharray="5,2" d="M2591,-8C2591,-8 2840,-8 2840,-8 2846,-8 2852,-14 2852,-20 2852,-20 2852,-297 2852,-297 2852,-303 2846,-309 2840,-309 2840,-309 2591,-309 2591,-309 2585,-309 2579,-303 2579,-297 2579,-297 2579,-20 2579,-20 2579,-14 2585,-8 2591,-8"/>
<text text-anchor="middle" x="2715.5" y="-293.8" font-family="Times,serif" font-size="14.00">Validation &amp; Predictive Tests</text>
</g>
<!-- D1 -->
<g id="node1" class="node">
<title>D1</title>
<path fill="none" stroke="black" d="M398,-166C398,-166 28,-166 28,-166 22,-166 16,-160 16,-154 16,-154 16,-140 16,-140 16,-134 22,-128 28,-128 28,-128 398,-128 398,-128 404,-128 410,-134 410,-140 410,-140 410,-154 410,-154 410,-160 404,-166 398,-166"/>
<text text-anchor="middle" x="213" y="-150.8" font-family="Times,serif" font-size="14.00">PDF Corpus</text>
<text text-anchor="middle" x="213" y="-135.8" font-family="Times,serif" font-size="14.00">(Annual • Sustainability • Half&#45;year • Earnings calls)</text>
</g>
<!-- D2 -->
<g id="node2" class="node">
<title>D2</title>
<path fill="none" stroke="black" d="M709,-166C709,-166 458,-166 458,-166 452,-166 446,-160 446,-154 446,-154 446,-140 446,-140 446,-134 452,-128 458,-128 458,-128 709,-128 709,-128 715,-128 721,-134 721,-140 721,-140 721,-154 721,-154 721,-160 715,-166 709,-166"/>
<text text-anchor="middle" x="583.5" y="-150.8" font-family="Times,serif" font-size="14.00">Metadata Build &amp; Merge</text>
<text text-anchor="middle" x="583.5" y="-135.8" font-family="Times,serif" font-size="14.00">(company • year • doc type • paths)</text>
</g>
<!-- D1&#45;&gt;D2 -->
<g id="edge1" class="edge">
<title>D1&#45;&gt;D2</title>
<path fill="none" stroke="black" d="M410.12,-147C418.67,-147 427.19,-147 435.6,-147"/>
<polygon fill="black" stroke="black" points="435.8,-150.5 445.8,-147 435.8,-143.5 435.8,-150.5"/>
</g>
<!-- D3 -->
<g id="node3" class="node">
<title>D3</title>
<path fill="none" stroke="black" d="M907,-166C907,-166 769,-166 769,-166 763,-166 757,-160 757,-154 757,-154 757,-140 757,-140 757,-134 763,-128 769,-128 769,-128 907,-128 907,-128 913,-128 919,-134 919,-140 919,-140 919,-154 919,-154 919,-160 913,-166 907,-166"/>
<text text-anchor="middle" x="838" y="-150.8" font-family="Times,serif" font-size="14.00">Sentence Extraction</text>
<text text-anchor="middle" x="838" y="-135.8" font-family="Times,serif" font-size="14.00">(PyMuPDF + rules)</text>
</g>
<!-- D2&#45;&gt;D3 -->
<g id="edge2" class="edge">
<title>D2&#45;&gt;D3</title>
<path fill="none" stroke="black" d="M721.1,-147C729.77,-147 738.38,-147 746.76,-147"/>
<polygon fill="black" stroke="black" points="746.85,-150.5 756.85,-147 746.85,-143.5 746.85,-150.5"/>
</g>
<!-- D4 -->
<g id="node4" class="node">
<title>D4</title>
<path fill="none" stroke="black" d="M1164,-166C1164,-166 967,-166 967,-166 961,-166 955,-160 955,-154 955,-154 955,-140 955,-140 955,-134 961,-128 967,-128 967,-128 1164,-128 1164,-128 1170,-128 1176,-134 1176,-140 1176,-140 1176,-154 1176,-154 1176,-160 1170,-166 1164,-166"/>
<text text-anchor="middle" x="1065.5" y="-150.8" font-family="Times,serif" font-size="14.00">Segmentation &amp; Cleaning</text>
<text text-anchor="middle" x="1065.5" y="-135.8" font-family="Times,serif" font-size="14.00">(spaCy • de&#45;noising • filters)</text>
</g>
<!-- D3&#45;&gt;D4 -->
<g id="edge3" class="edge">
<title>D3&#45;&gt;D4</title>
<path fill="none" stroke="black" d="M919.14,-147C927.42,-147 935.95,-147 944.55,-147"/>
<polygon fill="black" stroke="black" points="944.65,-150.5 954.65,-147 944.65,-143.5 944.65,-150.5"/>
</g>
<!-- M1 -->
<g id="node5" class="node">
<title>M1</title>
<path fill="none" stroke="black" d="M1606,-222C1606,-222 1224,-222 1224,-222 1218,-222 1212,-216 1212,-210 1212,-210 1212,-196 1212,-196 1212,-190 1218,-184 1224,-184 1224,-184 1606,-184 1606,-184 1612,-184 1618,-190 1618,-196 1618,-196 1618,-210 1618,-210 1618,-216 1612,-222 1606,-222"/>
<text text-anchor="middle" x="1415" y="-206.8" font-family="Times,serif" font-size="14.00">ESGBERT (E/S/G)</text>
<text text-anchor="middle" x="1415" y="-191.8" font-family="Times,serif" font-size="14.00">EnvironmentalBERT • SocialBERT • GovernanceBERT</text>
</g>
<!-- D4&#45;&gt;M1 -->
<g id="edge4" class="edge">
<title>D4&#45;&gt;M1</title>
<path fill="none" stroke="black" d="M1155.46,-166.04C1171.58,-169.23 1188.26,-172.35 1204,-175 1219.47,-177.6 1235.61,-180.12 1251.78,-182.5"/>
<polygon fill="black" stroke="black" points="1251.44,-185.98 1261.84,-183.96 1252.45,-179.06 1251.44,-185.98"/>
</g>
<!-- M2 -->
<g id="node6" class="node">
<title>M2</title>
<path fill="none" stroke="black" d="M1513.5,-166C1513.5,-166 1316.5,-166 1316.5,-166 1310.5,-166 1304.5,-160 1304.5,-154 1304.5,-154 1304.5,-140 1304.5,-140 1304.5,-134 1310.5,-128 1316.5,-128 1316.5,-128 1513.5,-128 1513.5,-128 1519.5,-128 1525.5,-134 1525.5,-140 1525.5,-140 1525.5,-154 1525.5,-154 1525.5,-160 1519.5,-166 1513.5,-166"/>
<text text-anchor="middle" x="1415" y="-150.8" font-family="Times,serif" font-size="14.00">FinBERT (Sentiment)</text>
<text text-anchor="middle" x="1415" y="-135.8" font-family="Times,serif" font-size="14.00">positive • neutral • negative</text>
</g>
<!-- D4&#45;&gt;M2 -->
<g id="edge5" class="edge">
<title>D4&#45;&gt;M2</title>
<path fill="none" stroke="black" d="M1176.45,-147C1213.96,-147 1256.08,-147 1294.31,-147"/>
<polygon fill="black" stroke="black" points="1294.47,-150.5 1304.47,-147 1294.47,-143.5 1294.47,-150.5"/>
</g>
<!-- M3 -->
<g id="node7" class="node">
<title>M3</title>
<path fill="none" stroke="black" d="M1516,-110C1516,-110 1314,-110 1314,-110 1308,-110 1302,-104 1302,-98 1302,-98 1302,-84 1302,-84 1302,-78 1308,-72 1314,-72 1314,-72 1516,-72 1516,-72 1522,-72 1528,-78 1528,-84 1528,-84 1528,-98 1528,-98 1528,-104 1522,-110 1516,-110"/>
<text text-anchor="middle" x="1415" y="-94.8" font-family="Times,serif" font-size="14.00">GPT‑3.5 (Batch)</text>
<text text-anchor="middle" x="1415" y="-79.8" font-family="Times,serif" font-size="14.00">alt. sentiment / ESG prompts</text>
</g>
<!-- D4&#45;&gt;M3 -->
<g id="edge6" class="edge">
<title>D4&#45;&gt;M3</title>
<path fill="none" stroke="black" d="M1155.46,-127.96C1171.58,-124.77 1188.26,-121.65 1204,-119 1232.31,-114.24 1262.88,-109.77 1291.69,-105.87"/>
<polygon fill="black" stroke="black" points="1292.36,-109.32 1301.81,-104.52 1291.43,-102.38 1292.36,-109.32"/>
</g>
<!-- A1 -->
<g id="node8" class="node">
<title>A1</title>
<path fill="none" stroke="black" d="M1836,-166C1836,-166 1666,-166 1666,-166 1660,-166 1654,-160 1654,-154 1654,-154 1654,-140 1654,-140 1654,-134 1660,-128 1666,-128 1666,-128 1836,-128 1836,-128 1842,-128 1848,-134 1848,-140 1848,-140 1848,-154 1848,-154 1848,-160 1842,-166 1836,-166"/>
<text text-anchor="middle" x="1751" y="-150.8" font-family="Times,serif" font-size="14.00">Confidence Thresholding</text>
<text text-anchor="middle" x="1751" y="-135.8" font-family="Times,serif" font-size="14.00">(e.g., &gt; 0.5 / 0.9)</text>
</g>
<!-- M1&#45;&gt;A1 -->
<g id="edge7" class="edge">
<title>M1&#45;&gt;A1</title>
<path fill="none" stroke="black" d="M1570.78,-183.96C1589.43,-181.2 1608.17,-178.2 1626,-175 1637.17,-173 1648.86,-170.67 1660.41,-168.23"/>
<polygon fill="black" stroke="black" points="1661.46,-171.58 1670.5,-166.06 1659.99,-164.74 1661.46,-171.58"/>
</g>
<!-- M2&#45;&gt;A1 -->
<g id="edge8" class="edge">
<title>M2&#45;&gt;A1</title>
<path fill="none" stroke="black" d="M1525.83,-147C1563.63,-147 1605.87,-147 1643.41,-147"/>
<polygon fill="black" stroke="black" points="1643.86,-150.5 1653.86,-147 1643.86,-143.5 1643.86,-150.5"/>
</g>
<!-- M3&#45;&gt;A1 -->
<g id="edge9" class="edge">
<title>M3&#45;&gt;A1</title>
<path fill="none" stroke="black" d="M1528.27,-104.08C1559.96,-108.28 1594.41,-113.34 1626,-119 1637.17,-121 1648.86,-123.33 1660.41,-125.77"/>
<polygon fill="black" stroke="black" points="1659.99,-129.26 1670.5,-127.94 1661.46,-122.42 1659.99,-129.26"/>
</g>
<!-- A2 -->
<g id="node9" class="node">
<title>A2</title>
<path fill="none" stroke="black" d="M2057,-166C2057,-166 1896,-166 1896,-166 1890,-166 1884,-160 1884,-154 1884,-154 1884,-140 1884,-140 1884,-134 1890,-128 1896,-128 1896,-128 2057,-128 2057,-128 2063,-128 2069,-134 2069,-140 2069,-140 2069,-154 2069,-154 2069,-160 2063,-166 2057,-166"/>
<text text-anchor="middle" x="1976.5" y="-150.8" font-family="Times,serif" font-size="14.00">Dominant Label Logic</text>
<text text-anchor="middle" x="1976.5" y="-135.8" font-family="Times,serif" font-size="14.00">(avoid double counting)</text>
</g>
<!-- A1&#45;&gt;A2 -->
<g id="edge10" class="edge">
<title>A1&#45;&gt;A2</title>
<path fill="none" stroke="black" d="M1848.08,-147C1856.49,-147 1865.02,-147 1873.48,-147"/>
<polygon fill="black" stroke="black" points="1873.75,-150.5 1883.75,-147 1873.75,-143.5 1873.75,-150.5"/>
</g>
<!-- A3 -->
<g id="node10" class="node">
<title>A3</title>
<path fill="none" stroke="black" d="M2291,-166C2291,-166 2117,-166 2117,-166 2111,-166 2105,-160 2105,-154 2105,-154 2105,-140 2105,-140 2105,-134 2111,-128 2117,-128 2117,-128 2291,-128 2291,-128 2297,-128 2303,-134 2303,-140 2303,-140 2303,-154 2303,-154 2303,-160 2297,-166 2291,-166"/>
<text text-anchor="middle" x="2204" y="-150.8" font-family="Times,serif" font-size="14.00">Join Outputs</text>
<text text-anchor="middle" x="2204" y="-135.8" font-family="Times,serif" font-size="14.00">(ESG labels + sentiment)</text>
</g>
<!-- A2&#45;&gt;A3 -->
<g id="edge11" class="edge">
<title>A2&#45;&gt;A3</title>
<path fill="none" stroke="black" d="M2069.22,-147C2077.54,-147 2086.02,-147 2094.47,-147"/>
<polygon fill="black" stroke="black" points="2094.75,-150.5 2104.75,-147 2094.75,-143.5 2094.75,-150.5"/>
</g>
<!-- S1 -->
<g id="node11" class="node">
<title>S1</title>
<path fill="none" stroke="black" d="M2495.5,-54C2495.5,-54 2394.5,-54 2394.5,-54 2388.5,-54 2382.5,-48 2382.5,-42 2382.5,-42 2382.5,-28 2382.5,-28 2382.5,-22 2388.5,-16 2394.5,-16 2394.5,-16 2495.5,-16 2495.5,-16 2501.5,-16 2507.5,-22 2507.5,-28 2507.5,-28 2507.5,-42 2507.5,-42 2507.5,-48 2501.5,-54 2495.5,-54"/>
<text text-anchor="middle" x="2445" y="-38.8" font-family="Times,serif" font-size="14.00">Quantity&#45;based</text>
<text text-anchor="middle" x="2445" y="-23.8" font-family="Times,serif" font-size="14.00">(E/S/G shares)</text>
</g>
<!-- A3&#45;&gt;S1 -->
<g id="edge12" class="edge">
<title>A3&#45;&gt;S1</title>
<path fill="none" stroke="black" d="M2228.18,-127.94C2252.42,-108.9 2292.27,-80.08 2331,-63 2343.95,-57.29 2358.26,-52.61 2372.23,-48.82"/>
<polygon fill="black" stroke="black" points="2373.51,-52.11 2382.32,-46.22 2371.76,-45.33 2373.51,-52.11"/>
</g>
<!-- S2 -->
<g id="node12" class="node">
<title>S2</title>
<path fill="none" stroke="black" d="M2493,-278C2493,-278 2397,-278 2397,-278 2391,-278 2385,-272 2385,-266 2385,-266 2385,-252 2385,-252 2385,-246 2391,-240 2397,-240 2397,-240 2493,-240 2493,-240 2499,-240 2505,-246 2505,-252 2505,-252 2505,-266 2505,-266 2505,-272 2499,-278 2493,-278"/>
<text text-anchor="middle" x="2445" y="-262.8" font-family="Times,serif" font-size="14.00">Earnings&#45;only</text>
<text text-anchor="middle" x="2445" y="-247.8" font-family="Times,serif" font-size="14.00">(EC emphasis)</text>
</g>
<!-- A3&#45;&gt;S2 -->
<g id="edge13" class="edge">
<title>A3&#45;&gt;S2</title>
<path fill="none" stroke="black" d="M2228.18,-166.06C2252.42,-185.1 2292.27,-213.92 2331,-231 2344.88,-237.12 2360.33,-242.06 2375.25,-245.99"/>
<polygon fill="black" stroke="black" points="2374.4,-249.38 2384.95,-248.42 2376.1,-242.59 2374.4,-249.38"/>
</g>
<!-- S3 -->
<g id="node13" class="node">
<title>S3</title>
<path fill="none" stroke="black" d="M2539,-222C2539,-222 2351,-222 2351,-222 2345,-222 2339,-216 2339,-210 2339,-210 2339,-196 2339,-196 2339,-190 2345,-184 2351,-184 2351,-184 2539,-184 2539,-184 2545,-184 2551,-190 2551,-196 2551,-196 2551,-210 2551,-210 2551,-216 2545,-222 2539,-222"/>
<text text-anchor="middle" x="2445" y="-206.8" font-family="Times,serif" font-size="14.00">Exclude ESG&#45;branded Docs</text>
<text text-anchor="middle" x="2445" y="-191.8" font-family="Times,serif" font-size="14.00">(core reports only)</text>
</g>
<!-- A3&#45;&gt;S3 -->
<g id="edge14" class="edge">
<title>A3&#45;&gt;S3</title>
<path fill="none" stroke="black" d="M2286.25,-166.04C2307.61,-171.04 2330.79,-176.47 2352.64,-181.59"/>
<polygon fill="black" stroke="black" points="2352.04,-185.05 2362.57,-183.92 2353.63,-178.23 2352.04,-185.05"/>
</g>
<!-- S4 -->
<g id="node14" class="node">
<title>S4</title>
<path fill="none" stroke="black" d="M2513.5,-166C2513.5,-166 2376.5,-166 2376.5,-166 2370.5,-166 2364.5,-160 2364.5,-154 2364.5,-154 2364.5,-140 2364.5,-140 2364.5,-134 2370.5,-128 2376.5,-128 2376.5,-128 2513.5,-128 2513.5,-128 2519.5,-128 2525.5,-134 2525.5,-140 2525.5,-140 2525.5,-154 2525.5,-154 2525.5,-160 2519.5,-166 2513.5,-166"/>
<text text-anchor="middle" x="2445" y="-150.8" font-family="Times,serif" font-size="14.00">Sentiment&#45;adjusted</text>
<text text-anchor="middle" x="2445" y="-135.8" font-family="Times,serif" font-size="14.00">(Pos−Neg, Pos&#45;only)</text>
</g>
<!-- A3&#45;&gt;S4 -->
<g id="edge15" class="edge">
<title>A3&#45;&gt;S4</title>
<path fill="none" stroke="black" d="M2303.25,-147C2320.09,-147 2337.52,-147 2354.13,-147"/>
<polygon fill="black" stroke="black" points="2354.36,-150.5 2364.36,-147 2354.36,-143.5 2354.36,-150.5"/>
</g>
<!-- S5 -->
<g id="node15" class="node">
<title>S5</title>
<path fill="none" stroke="black" d="M2519.5,-110C2519.5,-110 2370.5,-110 2370.5,-110 2364.5,-110 2358.5,-104 2358.5,-98 2358.5,-98 2358.5,-84 2358.5,-84 2358.5,-78 2364.5,-72 2370.5,-72 2370.5,-72 2519.5,-72 2519.5,-72 2525.5,-72 2531.5,-78 2531.5,-84 2531.5,-84 2531.5,-98 2531.5,-98 2531.5,-104 2525.5,-110 2519.5,-110"/>
<text text-anchor="middle" x="2445" y="-94.8" font-family="Times,serif" font-size="14.00">SASB Hybrid Weights</text>
<text text-anchor="middle" x="2445" y="-79.8" font-family="Times,serif" font-size="14.00">(α=0.7 blend)</text>
</g>
<!-- A3&#45;&gt;S5 -->
<g id="edge16" class="edge">
<title>A3&#45;&gt;S5</title>
<path fill="none" stroke="black" d="M2286.25,-127.96C2307.61,-122.96 2330.79,-117.53 2352.64,-112.41"/>
<polygon fill="black" stroke="black" points="2353.63,-115.77 2362.57,-110.08 2352.04,-108.95 2353.63,-115.77"/>
</g>
<!-- V1 -->
<g id="node16" class="node">
<title>V1</title>
<path fill="none" stroke="black" d="M2801,-110C2801,-110 2630,-110 2630,-110 2624,-110 2618,-104 2618,-98 2618,-98 2618,-84 2618,-84 2618,-78 2624,-72 2630,-72 2630,-72 2801,-72 2801,-72 2807,-72 2813,-78 2813,-84 2813,-84 2813,-98 2813,-98 2813,-104 2807,-110 2801,-110"/>
<text text-anchor="middle" x="2715.5" y="-94.8" font-family="Times,serif" font-size="14.00">Against Carbon Intensity</text>
<text text-anchor="middle" x="2715.5" y="-79.8" font-family="Times,serif" font-size="14.00">(Scope 1–2 • Scope 1–3)</text>
</g>
<!-- S1&#45;&gt;V1 -->
<g id="edge17" class="edge">
<title>S1&#45;&gt;V1</title>
<path fill="none" stroke="black" d="M2507.57,-48.01C2530.05,-52.75 2555.67,-58.13 2579,-63 2589.82,-65.26 2601.13,-67.61 2612.4,-69.95"/>
<polygon fill="black" stroke="black" points="2611.78,-73.39 2622.29,-71.99 2613.21,-66.54 2611.78,-73.39"/>
</g>
<!-- V2 -->
<g id="node17" class="node">
<title>V2</title>
<path fill="none" stroke="black" d="M2815.5,-54C2815.5,-54 2615.5,-54 2615.5,-54 2609.5,-54 2603.5,-48 2603.5,-42 2603.5,-42 2603.5,-28 2603.5,-28 2603.5,-22 2609.5,-16 2615.5,-16 2615.5,-16 2815.5,-16 2815.5,-16 2821.5,-16 2827.5,-22 2827.5,-28 2827.5,-28 2827.5,-42 2827.5,-42 2827.5,-48 2821.5,-54 2815.5,-54"/>
<text text-anchor="middle" x="2715.5" y="-38.8" font-family="Times,serif" font-size="14.00">Against Refinitiv</text>
<text text-anchor="middle" x="2715.5" y="-23.8" font-family="Times,serif" font-size="14.00">ESG • ESGC • Controversies</text>
</g>
<!-- S1&#45;&gt;V2 -->
<g id="edge18" class="edge">
<title>S1&#45;&gt;V2</title>
<path fill="none" stroke="black" d="M2507.6,-35C2533.12,-35 2563.66,-35 2593.34,-35"/>
<polygon fill="black" stroke="black" points="2593.36,-38.5 2603.36,-35 2593.36,-31.5 2593.36,-38.5"/>
</g>
<!-- V3 -->
<g id="node18" class="node">
<title>V3</title>
<path fill="none" stroke="black" d="M2832,-278C2832,-278 2599,-278 2599,-278 2593,-278 2587,-272 2587,-266 2587,-266 2587,-252 2587,-252 2587,-246 2593,-240 2599,-240 2599,-240 2832,-240 2832,-240 2838,-240 2844,-246 2844,-252 2844,-252 2844,-266 2844,-266 2844,-272 2838,-278 2832,-278"/>
<text text-anchor="middle" x="2715.5" y="-262.8" font-family="Times,serif" font-size="14.00">Rank Metrics</text>
<text text-anchor="middle" x="2715.5" y="-247.8" font-family="Times,serif" font-size="14.00">Spearman • Kendall • MAR • J@3</text>
</g>
<!-- S1&#45;&gt;V3 -->
<g id="edge19" class="edge">
<title>S1&#45;&gt;V3</title>
<path fill="none" stroke="black" d="M2507.61,-36.98C2526.66,-40.72 2546.03,-48.3 2559,-63 2608.76,-119.37 2528.14,-175.61 2579,-231 2579.66,-231.72 2580.33,-232.42 2581.01,-233.1"/>
<polygon fill="black" stroke="black" points="2578.94,-235.94 2588.78,-239.87 2583.54,-230.66 2578.94,-235.94"/>
</g>
<!-- V4 -->
<g id="node19" class="node">
<title>V4</title>
<path fill="none" stroke="black" d="M2785.5,-222C2785.5,-222 2645.5,-222 2645.5,-222 2639.5,-222 2633.5,-216 2633.5,-210 2633.5,-210 2633.5,-196 2633.5,-196 2633.5,-190 2639.5,-184 2645.5,-184 2645.5,-184 2785.5,-184 2785.5,-184 2791.5,-184 2797.5,-190 2797.5,-196 2797.5,-196 2797.5,-210 2797.5,-210 2797.5,-216 2791.5,-222 2785.5,-222"/>
<text text-anchor="middle" x="2715.5" y="-206.8" font-family="Times,serif" font-size="14.00">Value Metrics</text>
<text text-anchor="middle" x="2715.5" y="-191.8" font-family="Times,serif" font-size="14.00">Pearson (log carbon)</text>
</g>
<!-- S1&#45;&gt;V4 -->
<g id="edge20" class="edge">
<title>S1&#45;&gt;V4</title>
<path fill="none" stroke="black" d="M2507.71,-37.54C2526.54,-41.35 2545.74,-48.83 2559,-63 2593.55,-99.92 2543.73,-138.76 2579,-175 2590.97,-187.3 2606.82,-194.92 2623.45,-199.51"/>
<polygon fill="black" stroke="black" points="2622.77,-202.94 2633.31,-201.87 2624.4,-196.13 2622.77,-202.94"/>
</g>
<!-- V5 -->
<g id="node20" class="node">
<title>V5</title>
<path fill="none" stroke="black" d="M2792.5,-166C2792.5,-166 2638.5,-166 2638.5,-166 2632.5,-166 2626.5,-160 2626.5,-154 2626.5,-154 2626.5,-140 2626.5,-140 2626.5,-134 2632.5,-128 2638.5,-128 2638.5,-128 2792.5,-128 2792.5,-128 2798.5,-128 2804.5,-134 2804.5,-140 2804.5,-140 2804.5,-154 2804.5,-154 2804.5,-160 2798.5,-166 2792.5,-166"/>
<text text-anchor="middle" x="2715.5" y="-150.8" font-family="Times,serif" font-size="14.00">Predictive 2021→2022</text>
<text text-anchor="middle" x="2715.5" y="-135.8" font-family="Times,serif" font-size="14.00">levels • Δlog • %Δ</text>
</g>
<!-- S1&#45;&gt;V5 -->
<g id="edge21" class="edge">
<title>S1&#45;&gt;V5</title>
<path fill="none" stroke="black" d="M2507.56,-39.14C2525.93,-43.09 2544.91,-50.26 2559,-63 2578.6,-80.73 2559.06,-101.66 2579,-119 2589.82,-128.41 2602.97,-134.96 2616.77,-139.46"/>
<polygon fill="black" stroke="black" points="2615.83,-142.83 2626.41,-142.26 2617.78,-136.11 2615.83,-142.83"/>
</g>
<!-- S2&#45;&gt;V1 -->
<g id="edge22" class="edge">
<title>S2&#45;&gt;V1</title>
<path fill="none" stroke="black" d="M2505.06,-256.97C2524.72,-253.33 2545.12,-245.83 2559,-231 2593.55,-194.08 2543.73,-155.24 2579,-119 2587.31,-110.46 2597.49,-104.18 2608.5,-99.6"/>
<polygon fill="black" stroke="black" points="2609.74,-102.87 2617.92,-96.14 2607.33,-96.3 2609.74,-102.87"/>
</g>
<!-- S2&#45;&gt;V2 -->
<g id="edge23" class="edge">
<title>S2&#45;&gt;V2</title>
<path fill="none" stroke="black" d="M2505.25,-257.47C2525.05,-253.89 2545.49,-246.3 2559,-231 2608.76,-174.63 2528.14,-118.39 2579,-63 2583.53,-58.06 2588.68,-53.87 2594.27,-50.32"/>
<polygon fill="black" stroke="black" points="2596.34,-53.17 2603.37,-45.25 2592.93,-47.06 2596.34,-53.17"/>
</g>
<!-- S2&#45;&gt;V3 -->
<g id="edge24" class="edge">
<title>S2&#45;&gt;V3</title>
<path fill="none" stroke="black" d="M2505.26,-259C2526.59,-259 2551.65,-259 2576.87,-259"/>
<polygon fill="black" stroke="black" points="2576.91,-262.5 2586.91,-259 2576.91,-255.5 2576.91,-262.5"/>
</g>
<!-- S2&#45;&gt;V4 -->
<g id="edge25" class="edge">
<title>S2&#45;&gt;V4</title>
<path fill="none" stroke="black" d="M2505.25,-246.48C2528.27,-241.62 2554.86,-236.03 2579,-231 2593.23,-228.03 2608.31,-224.9 2623.04,-221.85"/>
<polygon fill="black" stroke="black" points="2624.08,-225.21 2633.17,-219.76 2622.66,-218.35 2624.08,-225.21"/>
</g>
<!-- S2&#45;&gt;V5 -->
<g id="edge26" class="edge">
<title>S2&#45;&gt;V5</title>
<path fill="none" stroke="black" d="M2505.21,-255.35C2524.31,-251.5 2544.31,-244.29 2559,-231 2578.6,-213.27 2559.06,-192.34 2579,-175 2589.82,-165.59 2602.97,-159.04 2616.77,-154.54"/>
<polygon fill="black" stroke="black" points="2617.78,-157.89 2626.41,-151.74 2615.83,-151.17 2617.78,-157.89"/>
</g>
<!-- S3&#45;&gt;V1 -->
<g id="edge27" class="edge">
<title>S3&#45;&gt;V1</title>
<path fill="none" stroke="black" d="M2547.08,-183.87C2551.32,-181.26 2555.33,-178.32 2559,-175 2578.6,-157.27 2559.06,-136.34 2579,-119 2587.55,-111.56 2597.55,-105.92 2608.18,-101.65"/>
<polygon fill="black" stroke="black" points="2609.43,-104.92 2617.66,-98.25 2607.07,-98.33 2609.43,-104.92"/>
</g>
<!-- S3&#45;&gt;V2 -->
<g id="edge28" class="edge">
<title>S3&#45;&gt;V2</title>
<path fill="none" stroke="black" d="M2549.02,-183.72C2552.61,-181.14 2555.96,-178.25 2559,-175 2593.55,-138.08 2543.73,-99.24 2579,-63 2583.62,-58.26 2588.81,-54.21 2594.41,-50.76"/>
<polygon fill="black" stroke="black" points="2596.38,-53.68 2603.5,-45.83 2593.04,-47.52 2596.38,-53.68"/>
</g>
<!-- S3&#45;&gt;V3 -->
<g id="edge29" class="edge">
<title>S3&#45;&gt;V3</title>
<path fill="none" stroke="black" d="M2536.13,-222.02C2550.47,-225.04 2565.14,-228.11 2579,-231 2589.82,-233.26 2601.13,-235.61 2612.4,-237.95"/>
<polygon fill="black" stroke="black" points="2611.78,-241.39 2622.29,-239.99 2613.21,-234.54 2611.78,-241.39"/>
</g>
<!-- S3&#45;&gt;V4 -->
<g id="edge30" class="edge">
<title>S3&#45;&gt;V4</title>
<path fill="none" stroke="black" d="M2551.35,-203C2575.02,-203 2599.96,-203 2623.01,-203"/>
<polygon fill="black" stroke="black" points="2623.12,-206.5 2633.12,-203 2623.12,-199.5 2623.12,-206.5"/>
</g>
<!-- S3&#45;&gt;V5 -->
<g id="edge31" class="edge">
<title>S3&#45;&gt;V5</title>
<path fill="none" stroke="black" d="M2536.13,-183.98C2550.47,-180.96 2565.14,-177.89 2579,-175 2591.06,-172.48 2603.73,-169.85 2616.27,-167.25"/>
<polygon fill="black" stroke="black" points="2617.21,-170.63 2626.3,-165.18 2615.79,-163.78 2617.21,-170.63"/>
</g>
<!-- S4&#45;&gt;V1 -->
<g id="edge32" class="edge">
<title>S4&#45;&gt;V1</title>
<path fill="none" stroke="black" d="M2525.81,-130.15C2543.33,-126.46 2561.79,-122.59 2579,-119 2589.82,-116.74 2601.13,-114.39 2612.4,-112.05"/>
<polygon fill="black" stroke="black" points="2613.21,-115.46 2622.29,-110.01 2611.78,-108.61 2613.21,-115.46"/>
</g>
<!-- S4&#45;&gt;V2 -->
<g id="edge33" class="edge">
<title>S4&#45;&gt;V2</title>
<path fill="none" stroke="black" d="M2525.74,-137.82C2537.92,-133.58 2549.56,-127.54 2559,-119 2578.6,-101.27 2559.06,-80.34 2579,-63 2583.64,-58.96 2588.72,-55.45 2594.09,-52.4"/>
<polygon fill="black" stroke="black" points="2596.04,-55.34 2603.38,-47.7 2592.87,-49.09 2596.04,-55.34"/>
</g>
<!-- S4&#45;&gt;V3 -->
<g id="edge34" class="edge">
<title>S4&#45;&gt;V3</title>
<path fill="none" stroke="black" d="M2525.74,-156.18C2537.92,-160.42 2549.56,-166.46 2559,-175 2578.6,-192.73 2559.06,-213.66 2579,-231 2580.19,-232.03 2581.41,-233.03 2582.65,-234"/>
<polygon fill="black" stroke="black" points="2580.99,-237.11 2591.21,-239.9 2584.96,-231.34 2580.99,-237.11"/>
</g>
<!-- S4&#45;&gt;V4 -->
<g id="edge35" class="edge">
<title>S4&#45;&gt;V4</title>
<path fill="none" stroke="black" d="M2525.81,-163.85C2543.33,-167.54 2561.79,-171.41 2579,-175 2593.23,-177.97 2608.31,-181.1 2623.04,-184.15"/>
<polygon fill="black" stroke="black" points="2622.66,-187.65 2633.17,-186.24 2624.08,-180.79 2622.66,-187.65"/>
</g>
<!-- S4&#45;&gt;V5 -->
<g id="edge36" class="edge">
<title>S4&#45;&gt;V5</title>
<path fill="none" stroke="black" d="M2525.83,-147C2554.04,-147 2586.11,-147 2615.7,-147"/>
<polygon fill="black" stroke="black" points="2616.05,-150.5 2626.05,-147 2616.05,-143.5 2616.05,-150.5"/>
</g>
<!-- S5&#45;&gt;V1 -->
<g id="edge37" class="edge">
<title>S5&#45;&gt;V1</title>
<path fill="none" stroke="black" d="M2531.69,-91C2555.95,-91 2582.64,-91 2607.96,-91"/>
<polygon fill="black" stroke="black" points="2607.96,-94.5 2617.96,-91 2607.96,-87.5 2607.96,-94.5"/>
</g>
<!-- S5&#45;&gt;V2 -->
<g id="edge38" class="edge">
<title>S5&#45;&gt;V2</title>
<path fill="none" stroke="black" d="M2531.84,-72.88C2547.53,-69.58 2563.75,-66.18 2579,-63 2589.82,-60.74 2601.13,-58.39 2612.4,-56.05"/>
<polygon fill="black" stroke="black" points="2613.21,-59.46 2622.29,-54.01 2611.78,-52.61 2613.21,-59.46"/>
</g>
<!-- S5&#45;&gt;V3 -->
<g id="edge39" class="edge">
<title>S5&#45;&gt;V3</title>
<path fill="none" stroke="black" d="M2531.55,-100.67C2541.86,-104.96 2551.4,-110.88 2559,-119 2593.55,-155.92 2543.73,-194.76 2579,-231 2579.8,-231.82 2580.61,-232.61 2581.44,-233.39"/>
<polygon fill="black" stroke="black" points="2579.36,-236.21 2589.31,-239.85 2583.8,-230.8 2579.36,-236.21"/>
</g>
<!-- S5&#45;&gt;V4 -->
<g id="edge40" class="edge">
<title>S5&#45;&gt;V4</title>
<path fill="none" stroke="black" d="M2531.77,-102.46C2541.74,-106.51 2551.13,-111.88 2559,-119 2578.6,-136.73 2559.06,-157.66 2579,-175 2591.53,-185.9 2607.18,-192.95 2623.35,-197.45"/>
<polygon fill="black" stroke="black" points="2622.91,-200.94 2633.46,-199.92 2624.58,-194.14 2622.91,-200.94"/>
</g>
<!-- S5&#45;&gt;V5 -->
<g id="edge41" class="edge">
<title>S5&#45;&gt;V5</title>
<path fill="none" stroke="black" d="M2531.84,-109.12C2547.53,-112.42 2563.75,-115.82 2579,-119 2591.06,-121.52 2603.73,-124.15 2616.27,-126.75"/>
<polygon fill="black" stroke="black" points="2615.79,-130.22 2626.3,-128.82 2617.21,-123.37 2615.79,-130.22"/>
</g>
</g>
</svg>
