<?xml version="1.0" encoding="UTF-8" standalone="no"?>
<!DOCTYPE svg PUBLIC "-//W3C//DTD SVG 1.1//EN"
 "http://www.w3.org/Graphics/SVG/1.1/DTD/svg11.dtd">
<!-- Generated by graphviz version 2.43.0 (0)
 -->
<!-- Title: Transformer_ESG_Classification_Pipeline_v2 Pages: 1 -->
<svg width="358pt" height="636pt"
 viewBox="0.00 0.00 358.00 636.00" xmlns="http://www.w3.org/2000/svg" xmlns:xlink="http://www.w3.org/1999/xlink">
<g id="graph0" class="graph" transform="scale(1 1) rotate(0) translate(4 632)">
<title>Transformer_ESG_Classification_Pipeline_v2</title>
<polygon fill="white" stroke="transparent" points="-4,4 -4,-632 354,-632 354,4 -4,4"/>
<!-- A -->
<g id="node1" class="node">
<title>A</title>
<path fill="none" stroke="black" d="M225.5,-628C225.5,-628 124.5,-628 124.5,-628 118.5,-628 112.5,-622 112.5,-616 112.5,-616 112.5,-604 112.5,-604 112.5,-598 118.5,-592 124.5,-592 124.5,-592 225.5,-592 225.5,-592 231.5,-592 237.5,-598 237.5,-604 237.5,-604 237.5,-616 237.5,-616 237.5,-622 231.5,-628 225.5,-628"/>
<text text-anchor="middle" x="175" y="-606.3" font-family="Times,serif" font-size="14.00">Input Sentence</text>
</g>
<!-- B -->
<g id="node2" class="node">
<title>B</title>
<path fill="none" stroke="black" d="M306,-556C306,-556 44,-556 44,-556 38,-556 32,-550 32,-544 32,-544 32,-530 32,-530 32,-524 38,-518 44,-518 44,-518 306,-518 306,-518 312,-518 318,-524 318,-530 318,-530 318,-544 318,-544 318,-550 312,-556 306,-556"/>
<text text-anchor="middle" x="175" y="-540.8" font-family="Times,serif" font-size="14.00">Text Preprocessing</text>
<text text-anchor="middle" x="175" y="-525.8" font-family="Times,serif" font-size="14.00">(cleaning • segmentation with spaCy)</text>
</g>
<!-- A&#45;&gt;B -->
<g id="edge1" class="edge">
<title>A&#45;&gt;B</title>
<path fill="none" stroke="black" d="M175,-591.81C175,-584.11 175,-574.82 175,-566.15"/>
<polygon fill="black" stroke="black" points="178.5,-566.02 175,-556.02 171.5,-566.02 178.5,-566.02"/>
</g>
<!-- C -->
<g id="node3" class="node">
<title>C</title>
<path fill="none" stroke="black" d="M333.5,-482C333.5,-482 16.5,-482 16.5,-482 10.5,-482 4.5,-476 4.5,-470 4.5,-470 4.5,-456 4.5,-456 4.5,-450 10.5,-444 16.5,-444 16.5,-444 333.5,-444 333.5,-444 339.5,-444 345.5,-450 345.5,-456 345.5,-456 345.5,-470 345.5,-470 345.5,-476 339.5,-482 333.5,-482"/>
<text text-anchor="middle" x="175" y="-466.8" font-family="Times,serif" font-size="14.00">Tokenization</text>
<text text-anchor="middle" x="175" y="-451.8" font-family="Times,serif" font-size="14.00">(BPE/WordPiece + special tokens &lt;s&gt;/[CLS])</text>
</g>
<!-- B&#45;&gt;C -->
<g id="edge2" class="edge">
<title>B&#45;&gt;C</title>
<path fill="none" stroke="black" d="M175,-517.83C175,-510.13 175,-500.97 175,-492.42"/>
<polygon fill="black" stroke="black" points="178.5,-492.41 175,-482.41 171.5,-492.41 178.5,-492.41"/>
</g>
<!-- D -->
<g id="node4" class="node">
<title>D</title>
<path fill="none" stroke="black" d="M237,-408C237,-408 113,-408 113,-408 107,-408 101,-402 101,-396 101,-396 101,-382 101,-382 101,-376 107,-370 113,-370 113,-370 237,-370 237,-370 243,-370 249,-376 249,-382 249,-382 249,-396 249,-396 249,-402 243,-408 237,-408"/>
<text text-anchor="middle" x="175" y="-392.8" font-family="Times,serif" font-size="14.00">Embedding Layer</text>
<text text-anchor="middle" x="175" y="-377.8" font-family="Times,serif" font-size="14.00">(tokens → vectors)</text>
</g>
<!-- C&#45;&gt;D -->
<g id="edge3" class="edge">
<title>C&#45;&gt;D</title>
<path fill="none" stroke="black" d="M175,-443.83C175,-436.13 175,-426.97 175,-418.42"/>
<polygon fill="black" stroke="black" points="178.5,-418.41 175,-408.41 171.5,-418.41 178.5,-418.41"/>
</g>
<!-- E -->
<g id="node5" class="node">
<title>E</title>
<path fill="none" stroke="black" d="M292,-334C292,-334 58,-334 58,-334 52,-334 46,-328 46,-322 46,-322 46,-308 46,-308 46,-302 52,-296 58,-296 58,-296 292,-296 292,-296 298,-296 304,-302 304,-308 304,-308 304,-322 304,-322 304,-328 298,-334 292,-334"/>
<text text-anchor="middle" x="175" y="-318.8" font-family="Times,serif" font-size="14.00">Transformer Encoder</text>
<text text-anchor="middle" x="175" y="-303.8" font-family="Times,serif" font-size="14.00">(Multi&#45;head Attention + FFN × L)</text>
</g>
<!-- D&#45;&gt;E -->
<g id="edge4" class="edge">
<title>D&#45;&gt;E</title>
<path fill="none" stroke="black" d="M175,-369.83C175,-362.13 175,-352.97 175,-344.42"/>
<polygon fill="black" stroke="black" points="178.5,-344.41 175,-334.41 171.5,-344.41 178.5,-344.41"/>
</g>
<!-- F -->
<g id="node6" class="node">
<title>F</title>
<path fill="none" stroke="black" d="M288.5,-260C288.5,-260 61.5,-260 61.5,-260 55.5,-260 49.5,-254 49.5,-248 49.5,-248 49.5,-234 49.5,-234 49.5,-228 55.5,-222 61.5,-222 61.5,-222 288.5,-222 288.5,-222 294.5,-222 300.5,-228 300.5,-234 300.5,-234 300.5,-248 300.5,-248 300.5,-254 294.5,-260 288.5,-260"/>
<text text-anchor="middle" x="175" y="-244.8" font-family="Times,serif" font-size="14.00">Pooled Sequence Representation</text>
<text text-anchor="middle" x="175" y="-229.8" font-family="Times,serif" font-size="14.00">(&lt;s&gt;/[CLS] aggregate)</text>
</g>
<!-- E&#45;&gt;F -->
<g id="edge5" class="edge">
<title>E&#45;&gt;F</title>
<path fill="none" stroke="black" d="M175,-295.83C175,-288.13 175,-278.97 175,-270.42"/>
<polygon fill="black" stroke="black" points="178.5,-270.41 175,-260.41 171.5,-270.41 178.5,-270.41"/>
</g>
<!-- G -->
<g id="node7" class="node">
<title>G</title>
<path fill="none" stroke="black" d="M259,-186C259,-186 91,-186 91,-186 85,-186 79,-180 79,-174 79,-174 79,-160 79,-160 79,-154 85,-148 91,-148 91,-148 259,-148 259,-148 265,-148 271,-154 271,-160 271,-160 271,-174 271,-174 271,-180 265,-186 259,-186"/>
<text text-anchor="middle" x="175" y="-170.8" font-family="Times,serif" font-size="14.00">Classification Head</text>
<text text-anchor="middle" x="175" y="-155.8" font-family="Times,serif" font-size="14.00">(Dense layer + Softmax)</text>
</g>
<!-- F&#45;&gt;G -->
<g id="edge6" class="edge">
<title>F&#45;&gt;G</title>
<path fill="none" stroke="black" d="M175,-221.83C175,-214.13 175,-204.97 175,-196.42"/>
<polygon fill="black" stroke="black" points="178.5,-196.41 175,-186.41 171.5,-196.41 178.5,-196.41"/>
</g>
<!-- H -->
<g id="node8" class="node">
<title>H</title>
<path fill="none" stroke="black" d="M338,-112C338,-112 12,-112 12,-112 6,-112 0,-106 0,-100 0,-100 0,-86 0,-86 0,-80 6,-74 12,-74 12,-74 338,-74 338,-74 344,-74 350,-80 350,-86 350,-86 350,-100 350,-100 350,-106 344,-112 338,-112"/>
<text text-anchor="middle" x="175" y="-96.8" font-family="Times,serif" font-size="14.00">Probability Distribution</text>
<text text-anchor="middle" x="175" y="-81.8" font-family="Times,serif" font-size="14.00">(Environmental • Social • Governance • None)</text>
</g>
<!-- G&#45;&gt;H -->
<g id="edge7" class="edge">
<title>G&#45;&gt;H</title>
<path fill="none" stroke="black" d="M175,-147.83C175,-140.13 175,-130.97 175,-122.42"/>
<polygon fill="black" stroke="black" points="178.5,-122.41 175,-112.41 171.5,-122.41 178.5,-122.41"/>
</g>
<!-- I -->
<g id="node9" class="node">
<title>I</title>
<path fill="none" stroke="black" d="M298.5,-38C298.5,-38 51.5,-38 51.5,-38 45.5,-38 39.5,-32 39.5,-26 39.5,-26 39.5,-12 39.5,-12 39.5,-6 45.5,0 51.5,0 51.5,0 298.5,0 298.5,0 304.5,0 310.5,-6 310.5,-12 310.5,-12 310.5,-26 310.5,-26 310.5,-32 304.5,-38 298.5,-38"/>
<text text-anchor="middle" x="175" y="-22.8" font-family="Times,serif" font-size="14.00">Final ESG Label</text>
<text text-anchor="middle" x="175" y="-7.8" font-family="Times,serif" font-size="14.00">(thresholding • multi&#45;label allowed)</text>
</g>
<!-- H&#45;&gt;I -->
<g id="edge8" class="edge">
<title>H&#45;&gt;I</title>
<path fill="none" stroke="black" d="M175,-73.83C175,-66.13 175,-56.97 175,-48.42"/>
<polygon fill="black" stroke="black" points="178.5,-48.41 175,-38.41 171.5,-48.41 178.5,-48.41"/>
</g>
</g>
</svg>
